<svg xmlns="http://www.w3.org/2000/svg" viewBox="0 0 48 48" role="img" aria-label="Favicon De La Rosa">
  <rect width="48" height="48" rx="10" fill="#ffffff"/>
  <g transform="translate(4 4) scale(0.83)">
    <g fill="#b91c1c">
      <path d="M4 32c4 3 10 5 18 5s14-2 18-5c1-1 1-2-1-2-3 0-6 2-11 2s-8-2-11-2-8 2-10 2c-2 0-2 1-1 2z"/>
      <path d="M2 21c0 4 2 7 7 7 2 0 3 0 4-1 1-1 1-2 0-3-2-3-3-6-3-9 0-2 0-3-2-4-3-1-6 4-6 10z"/>
      <path d="M42 21c0 4-2 7-7 7-2 0-3 0-4-1-1-1-1-2 0-3 2-3 3-6 3-9 0-2 0-3 2-4 3-1 6 4 6 10z"/>
      <path d="M8 8c-1 3 0 6 2 9 1 2 3 2 4 1 3-2 3-6 2-9-1-3-4-5-7-2-1 0-1 1-1 1z"/>
      <path d="M40 8c1 3 0 6-2 9-1 2-3 2-4 1-3-2-3-6-2-9 1-3 4-5 7-2 1 0 1 1 1 1z"/>
      <path d="M24 0c-4 0-7 4-7 7 0 3 1 4 4 5 1 0 3 1 3 1s2-1 3-1c3-1 4-2 4-5 0-3-3-7-7-7z"/>
      <path d="M24 12c-6 0-10 5-10 11 0 5 3 9 7 11 2 1 4 1 6 0 4-2 7-6 7-11 0-6-4-11-10-11z"/>
      <path d="M24 15c-2 0-4 2-4 4 0 2 1 3 3 3 2 0 3-1 3-2 0-1-1-2-2-2 1 0 2-1 2-2s-1-1-2-1z"/>
    </g>
  </g>
</svg>
